# xmcd CD database file
#
# Track frame offsets:
#	150
#	22082
#	41313
#	64557
#	90198
#	120942
#	139984
#	161182
#	178219
#	192734
#	217472
#	229814
#	239373
#
# Disc length: 3481 seconds
#
# Revision: 3
# Processed by: cddbd v1.5.2PL0 Copyright (c) Steve Scherf et al.
# Submitted via: CDex 1.50
#
DISCID=bc0d970d
DTITLE=Klaus Doldinger - Early Doldinger - The Complete Philips Sessions CD01
DYEAR=2006
DGENRE=Jazz
TTITLE0=Bluesy Toosy
TTITLE1=Be-Bop
TTITLE2=Delilah
TTITLE3=Well You Needn't
TTITLE4=Blues For George
TTITLE5=Solar
TTITLE6=Stars Fell On Alabama
TTITLE7=Signal
TTITLE8=I Didn't Know What Time It Was
TTITLE9=Woody 'N You
TTITLE10=Recado Bossa Nova
TTITLE11=Copacabana
TTITLE12=Chega De Saudade
EXTD=YEAR: 2006
EXTT0=
EXTT1=
EXTT2=
EXTT3=
EXTT4=
EXTT5=
EXTT6=
EXTT7=
EXTT8=
EXTT9=
EXTT10=
EXTT11=
EXTT12=
PLAYORDER=
